<svg width="40" height="40" viewBox="0 0 40 40" fill="none" xmlns="http://www.w3.org/2000/svg">
<path d="M30 31.4329H28.7333C27.4 31.4329 26.1333 31.9496 25.2 32.8829L22.35 35.6997C21.05 36.983 18.9333 36.983 17.6333 35.6997L14.7833 32.8829C13.85 31.9496 12.5667 31.4329 11.25 31.4329H10C7.23333 31.4329 5 29.2163 5 26.4829V8.29956C5 5.56623 7.23333 3.34961 10 3.34961H30C32.7667 3.34961 35 5.56623 35 8.29956V26.4829C35 29.1996 32.7667 31.4329 30 31.4329Z" stroke="#C2185B" stroke-width="2.5" stroke-miterlimit="10" stroke-linecap="round" stroke-linejoin="round"/>
<path d="M11.6667 15.2665C11.6667 13.7165 12.9334 12.4497 14.4834 12.4497C16.0334 12.4497 17.3001 13.7165 17.3001 15.2665C17.3001 18.3998 12.8501 18.7331 11.8667 21.7165C11.6667 22.3331 12.1834 22.9498 12.8334 22.9498H17.3001" stroke="#C2185B" stroke-width="2.5" stroke-linecap="round" stroke-linejoin="round"/>
<path d="M26.7334 22.9331V13.4165C26.7334 12.9832 26.4501 12.5997 26.0334 12.4831C25.6168 12.3664 25.1668 12.5331 24.9334 12.8997C23.7334 14.8331 22.4334 17.0331 21.3001 18.9664C21.1168 19.2831 21.1168 19.6998 21.3001 20.0164C21.4834 20.3331 21.8334 20.533 22.2168 20.533H28.3334" stroke="#C2185B" stroke-width="2.5" stroke-linecap="round" stroke-linejoin="round"/>
</svg>
