<svg width="42" height="42" viewBox="0 0 42 42" fill="none" xmlns="http://www.w3.org/2000/svg">
<g filter="url(#filter0_b_222_13890)">
<path d="M1 21C1 9.95431 9.95431 1 21 1C32.0457 1 41 9.95431 41 21C41 32.0457 32.0457 41 21 41C9.95431 41 1 32.0457 1 21Z" fill="#747474" fill-opacity="0.2"/>
<path d="M21 0.5C9.67816 0.5 0.5 9.67816 0.5 21C0.5 32.3218 9.67816 41.5 21 41.5C32.3218 41.5 41.5 32.3218 41.5 21C41.5 9.67816 32.3218 0.5 21 0.5Z" stroke="#9A9A9A"/>
<path d="M13 21V29C13 29.5304 13.2107 30.0391 13.5858 30.4142C13.9609 30.7893 14.4696 31 15 31H27C27.5304 31 28.0391 30.7893 28.4142 30.4142C28.7893 30.0391 29 29.5304 29 29V21M25 15L21 11M21 11L17 15M21 11V24" stroke="#363636" stroke-width="1.5" stroke-linecap="round" stroke-linejoin="round"/>
</g>
<defs>
<filter id="filter0_b_222_13890" x="-12.5" y="-12.5" width="67" height="67" filterUnits="userSpaceOnUse" color-interpolation-filters="sRGB">
<feFlood flood-opacity="0" result="BackgroundImageFix"/>
<feGaussianBlur in="BackgroundImageFix" stdDeviation="6.25"/>
<feComposite in2="SourceAlpha" operator="in" result="effect1_backgroundBlur_222_13890"/>
<feBlend mode="normal" in="SourceGraphic" in2="effect1_backgroundBlur_222_13890" result="shape"/>
</filter>
</defs>
</svg>
