<svg width="60" height="60" viewBox="0 0 60 60" fill="none" xmlns="http://www.w3.org/2000/svg">
<rect width="60" height="60" rx="30" fill="#E8E9F2"/>
<path d="M27.9187 38.1016V41.4849C27.9187 44.3516 25.252 46.6683 21.9686 46.6683C18.6853 46.6683 16.002 44.3516 16.002 41.4849V38.1016C16.002 40.9682 18.6686 43.0016 21.9686 43.0016C25.252 43.0016 27.9187 40.9516 27.9187 38.1016Z" stroke="#C2185B" stroke-width="1.5" stroke-linecap="round" stroke-linejoin="round"/>
<path d="M27.9157 33.5162C27.9157 34.3496 27.6824 35.1162 27.2824 35.7829C26.299 37.3995 24.2823 38.4162 21.949 38.4162C19.6157 38.4162 17.599 37.3829 16.6157 35.7829C16.2157 35.1162 15.9824 34.3496 15.9824 33.5162C15.9824 32.0829 16.6491 30.7996 17.7157 29.8662C18.7991 28.9162 20.2823 28.3496 21.9323 28.3496C23.5823 28.3496 25.0657 28.9329 26.149 29.8662C27.249 30.7829 27.9157 32.0829 27.9157 33.5162Z" stroke="#C2185B" stroke-width="1.5" stroke-linecap="round" stroke-linejoin="round"/>
<path d="M27.9187 33.5173V38.1006C27.9187 40.9673 25.252 43.0006 21.9686 43.0006C18.6853 43.0006 16.002 40.9506 16.002 38.1006V33.5173C16.002 30.6506 18.6686 28.334 21.9686 28.334C23.6186 28.334 25.102 28.9173 26.1854 29.8506C27.252 30.7839 27.9187 32.084 27.9187 33.5173Z" stroke="#C2185B" stroke-width="1.5" stroke-linecap="round" stroke-linejoin="round"/>
<path d="M46.6657 28.2839V31.7173C46.6657 32.634 45.9324 33.3839 44.9991 33.4173H41.7324C39.9324 33.4173 38.2824 32.1006 38.1324 30.3006C38.0324 29.2506 38.4324 28.2673 39.1324 27.5839C39.749 26.9506 40.599 26.584 41.5324 26.584H44.9991C45.9324 26.6173 46.6657 27.3672 46.6657 28.2839Z" stroke="#C2185B" stroke-width="1.5" stroke-linecap="round" stroke-linejoin="round"/>
<path d="M13.332 27.5007V24.1673C13.332 19.634 16.0654 16.4673 20.3154 15.934C20.7487 15.8673 21.1987 15.834 21.6654 15.834H36.6654C37.0987 15.834 37.5154 15.8506 37.9154 15.9173C42.2154 16.4173 44.9987 19.6007 44.9987 24.1673V26.584H41.532C40.5987 26.584 39.7487 26.9506 39.132 27.584C38.432 28.2673 38.032 29.2506 38.132 30.3006C38.282 32.1006 39.932 33.4173 41.732 33.4173H44.9987V35.834C44.9987 40.834 41.6654 44.1673 36.6654 44.1673H32.4987" stroke="#C2185B" stroke-width="1.5" stroke-linecap="round" stroke-linejoin="round"/>
</svg>
